<svg xmlns="http://www.w3.org/2000/svg" viewBox="0 0 480 300" width="480" height="300">
  <defs>
    <linearGradient id="bgGeo" x1="0" y1="0" x2="1" y2="1">
      <stop offset="0%" stop-color="#021221" />
      <stop offset="100%" stop-color="#012a3a" />
    </linearGradient>
    <linearGradient id="accentGeo" x1="0" y1="0" x2="1" y2="1">
      <stop offset="0%" stop-color="#00d4ff" />
      <stop offset="100%" stop-color="#ff8cf4" />
    </linearGradient>
  </defs>
  <rect width="480" height="300" fill="url(#bgGeo)" rx="24" />
  <g opacity="0.12" stroke="#00d4ff" stroke-width="1.5">
    <circle cx="240" cy="150" r="110" fill="none" />
    <circle cx="240" cy="150" r="160" fill="none" />
    <path d="M60 150h360" />
    <path d="M240 40v220" />
    <path d="M120 70l240 180" />
    <path d="M120 250l240-180" />
  </g>
  <path d="M170 210c60-30 80-120 140-150 40-20 80 0 110 40" fill="none" stroke="url(#accentGeo)" stroke-width="5" stroke-linecap="round" />
  <circle cx="170" cy="210" r="12" fill="#00d4ff" opacity="0.8" />
  <circle cx="270" cy="120" r="10" fill="#ff8cf4" opacity="0.9" />
  <circle cx="330" cy="100" r="8" fill="#00ffc6" opacity="0.9" />
  <circle cx="390" cy="140" r="10" fill="#00d4ff" opacity="0.6" />
  <rect x="70" y="70" width="340" height="150" rx="18" fill="rgba(0,0,0,0.4)" stroke="url(#accentGeo)" stroke-width="3" />
  <g fill="#f0fbff" font-family="'Inter', 'Segoe UI', sans-serif">
    <text x="90" y="115" font-size="32" font-weight="600">Geo-Analyse mit Satellitendaten</text>
    <text x="90" y="150" font-size="18" opacity="0.75">Lagebilder, Heatmaps &amp; Resilienz in Krisenregionen</text>
    <text x="90" y="190" font-size="14" opacity="0.7">Von Rohdaten zu Reports: Visualisierung &amp; Storytelling.</text>
  </g>
  <g fill="none" stroke="url(#accentGeo)" stroke-width="2">
    <circle cx="110" cy="225" r="16" />
    <path d="M100 225h20" />
    <path d="M110 215v20" />
    <rect x="150" y="215" width="80" height="25" rx="12" />
  </g>
</svg>
